<svg width="30" height="30" viewBox="0 0 30 30" fill="none" xmlns="http://www.w3.org/2000/svg">
<path fill-rule="evenodd" clip-rule="evenodd" d="M1.60366 6.64902C0.996448 6.79211 0.445634 7.25248 0.170198 7.84714C0.0316876 8.14623 0.00733091 8.27441 0.00856342 8.69816C0.0112632 9.63668 -0.55211 9.00282 7.0081 16.5738C11.5678 21.1399 13.8161 23.3517 13.9981 23.4504C14.4232 23.6809 14.9253 23.7619 15.3669 23.6712C15.5687 23.6298 15.8545 23.5304 16.0021 23.4504C16.1841 23.3517 18.4324 21.1399 22.9921 16.5738C30.5529 9.00217 29.9894 9.63627 29.9911 8.69816C29.9919 8.27329 29.9672 8.14499 29.8248 7.8334C29.3322 6.75537 28.0193 6.29934 26.9437 6.83267C26.7908 6.90844 24.667 8.98868 20.8545 12.797L15.0001 18.6449L9.14568 12.797C5.31827 8.97377 3.20997 6.90891 3.0565 6.83308C2.60974 6.6124 2.05635 6.54232 1.60366 6.64902Z" fill="#969C9F"/>
</svg>
