<svg width="34" height="51" viewBox="0 0 34 51" fill="none" xmlns="http://www.w3.org/2000/svg">
<path fill-rule="evenodd" clip-rule="evenodd" d="M12.7408 0.470577C6.09281 2.07058 1.96981 6.34058 0.414811 13.2366C-1.13319 20.0946 1.72681 27.0136 7.73481 30.9506C9.23681 31.9346 10.4658 33.0996 10.4658 33.5396C10.4658 33.9786 11.8828 38.0486 13.6138 42.5826L16.7618 50.8266L19.8638 42.2406C22.2838 35.5426 23.8758 32.8136 27.1048 29.8316C32.5478 24.8046 34.3348 19.2106 32.5878 12.6726C30.1668 3.61558 21.5888 -1.65842 12.7408 0.470577ZM20.4658 12.5096C21.5658 13.6096 22.4658 15.4866 22.4658 16.6806C22.4658 22.0586 15.0558 24.6176 12.0228 20.2866C9.91981 17.2856 10.0618 15.5686 12.6398 12.8236C15.3108 9.98158 17.8358 9.87958 20.4658 12.5096Z" fill="#E04F5F"/>
</svg>
